<?xml version="1.0" encoding="utf-8"?>
<!-- Generator: Adobe Illustrator 15.0.0, SVG Export Plug-In . SVG Version: 6.00 Build 0)  -->
<!DOCTYPE svg PUBLIC "-//W3C//DTD SVG 1.1//EN" "http://www.w3.org/Graphics/SVG/1.1/DTD/svg11.dtd">
<svg version="1.1" id="Layer_1" xmlns="http://www.w3.org/2000/svg" xmlns:xlink="http://www.w3.org/1999/xlink" x="0px" y="0px"
	 width="512px" height="512px" viewBox="0 0 512 512" enable-background="new 0 0 512 512" xml:space="preserve">
<g id="_x38_8nnqJ.tif" opacity="0.5">
	<g>
		<path fill="#FFFFFF" d="M110.774,120.647c8.346-2.108,26.297-0.684,38.258-0.684c74.385,0,148.409,0,224.088,0
			c10.606,0,29.854-1.263,34.162,2.734c3.909,3.625,3.414,20.213,3.414,30.742c0,67.282,0,136.324,0,203.591
			c0,11.009,0.874,26.04-3.414,30.062c-4.944,4.632-25.051,2.735-36.209,2.735c-79.429,0-150.169,0-230.241,0
			c-12.261,0-30.811,1.488-35.527-2.735c-6.883-6.162-3.414-52.637-3.414-66.271c0-37.514,0-96.056,0-138.004
			c0-11.785-2.169-36.468,0-51.925C102.682,125.246,104.461,122.24,110.774,120.647z M153.129,141.827
			c-9.147,0-22.468-0.999-27.328,1.363c-3.6,1.918-2.516,14.083-0.684,17.082c66.273,1.138,137.323,1.138,203.597,0
			c2.282-3.455,2.01-14.258,0-17.762C272.685,141.265,210.032,141.827,153.129,141.827z M367.651,163.689
			c14.323-0.103,13.292-23.913-2.046-21.179C351.783,144.969,355.74,163.776,367.651,163.689z M123.754,184.865
			c0,61.033,0,122.063,0,183.095c88.357,0,176.723,0,265.076,0c0-61.713,0-123.425,0-185.143c-88.133,0-176.26,0-264.393,0
			C123.64,182.932,123.694,183.896,123.754,184.865z"/>
		<path fill="#FFFFFF" d="M169.528,250.455c2.748,11.51-4.149,35.145,9.565,32.109c9.957-2.205,1.221-23.531,6.149-32.109
			c1.7-0.576,3.661-0.896,6.148-0.684c6.439,7.287-3.328,29.866,6.148,32.793c14.212,4.387,7.766-20.915,10.246-32.109
			c2.065-0.92,5.455-0.92,7.516,0c1.031,18.846,5.769,46.353-19.128,40.991c-3.021-0.65-5.075-2.892-7.516-5.468
			c-4.374,7.716-22.203,8.438-26.644-2.728c-1.922-4.839-2.262-26.819,0-32.112C163.017,249.027,167.556,249.696,169.528,250.455z"
			/>
		<path fill="#FFFFFF" d="M234.433,250.455c3.93,7.68-1.6,24.822,3.414,31.429c2.326,0.895,7.508,1.354,8.883-0.688
			c5.017-6.369-0.594-23.366,3.414-30.741c1.704-0.576,3.665-0.896,6.148-0.684c6.184,8.679-4.417,36.844,10.93,32.793
			c9.19-2.427,2.262-22.278,5.469-32.109c1.703-0.576,3.656-0.896,6.146-0.684c3.866,3.615,2.906,10.869,2.735,17.082
			c-0.409,14.466-2.886,28.53-20.499,24.594c-2.699-0.602-5.175-2.44-6.829-5.468c-3.986,2.34-4.817,4.709-8.203,5.468
			c-12.146,2.713-19.565-5.024-20.493-17.766c-0.529-7.25-0.58-17.077,1.368-22.542
			C227.919,249.027,232.458,249.696,234.433,250.455z"/>
		<path fill="#FFFFFF" d="M299.331,250.455c5.088,8.825-5.927,37.327,11.617,31.429c6.255-5.59-0.129-23.813,4.102-31.429
			c1.703-0.576,3.656-0.896,6.148-0.684c6.127,8.711-4.337,36.83,10.93,32.793c10.071-2.663,0.571-25.006,6.835-32.793
			c2.483-0.211,4.445,0.108,6.149,0.684c3.464,18.295,3.735,46.353-19.133,40.991c-2.827-0.665-4.868-2.598-6.837-5.468
			c-3.765,3.528-9.325,7.258-17.758,5.468c-14.049-2.984-9.318-23.069-10.93-38.261c0.737-0.167,0.459-1.356,1.36-1.363
			C292.238,248.984,297.133,249.567,299.331,250.455z"/>
		<path fill="#FFFFFF" d="M364.237,283.251c0.888,1.982,0.888,4.846,0,6.829C351.868,297.925,351.604,275.277,364.237,283.251z"/>
	</g>
</g>
</svg>
