<?xml version="1.0" encoding="utf-8"?>
<!-- Generator: Adobe Illustrator 15.0.0, SVG Export Plug-In . SVG Version: 6.00 Build 0)  -->
<!DOCTYPE svg PUBLIC "-//W3C//DTD SVG 1.1//EN" "http://www.w3.org/Graphics/SVG/1.1/DTD/svg11.dtd">
<svg version="1.1" id="Layer_1" xmlns="http://www.w3.org/2000/svg" xmlns:xlink="http://www.w3.org/1999/xlink" x="0px" y="0px"
	 width="512px" height="512px" viewBox="0 0 512 512" enable-background="new 0 0 512 512" xml:space="preserve">
<g opacity="0.5">
	<path fill="#FFFFFF" d="M216.69,265.218c38.472,0,69.662-31.19,69.662-69.667c0-38.472-31.19-69.658-69.662-69.658
		c-38.472,0-69.663,31.187-69.663,69.658C147.027,234.027,178.218,265.218,216.69,265.218z"/>
	<path fill="#FFFFFF" d="M273.622,272.406l-50.786,117.588h121.303c0.029-1.173,0.178-2.309,0.178-3.488
		C344.317,336.506,315.494,293.342,273.622,272.406z"/>
	<path fill="#FFFFFF" d="M89.063,386.506c0,1.18,0.145,2.315,0.178,3.488h122.193l-52.308-117.287
		C117.592,293.759,89.063,336.75,89.063,386.506z"/>
	<polygon fill="#FFFFFF" points="230.623,276.619 202.75,276.619 195.787,317.585 216.69,371.63 238.223,317.585 	"/>
	<path fill="#FFFFFF" d="M358.524,228.274c-2.694,2.049-5.515,3.949-8.529,5.608c-10.132,5.579-21.621,8.529-33.23,8.529
		c-7.142,0-14.223-1.106-21.044-3.292l-1.736-0.557c-3.379,6.042-7.356,11.702-12.011,16.775l0.148,0.074
		c32.727,16.36,57.281,43.527,70.42,75.935h69.832C419.754,287.196,394.74,249.095,358.524,228.274z"/>
	<path fill="#FFFFFF" d="M303.796,211.8c-0.824,4.409-1.997,8.685-3.444,12.841c5.174,1.655,10.688,2.568,16.412,2.568
		c9.396,0,18.223-2.416,25.905-6.647c16.642-9.156,27.925-26.848,27.925-47.182c0-29.725-24.103-53.823-53.83-53.823
		c-14.104,0-26.894,5.467-36.491,14.337c15.492,15.974,25.081,37.704,25.081,61.656C305.354,201.107,304.776,206.522,303.796,211.8z
		"/>
</g>
</svg>
