<?xml version="1.0" encoding="utf-8"?>
<!-- Generator: Adobe Illustrator 15.0.0, SVG Export Plug-In . SVG Version: 6.00 Build 0)  -->
<!DOCTYPE svg PUBLIC "-//W3C//DTD SVG 1.1//EN" "http://www.w3.org/Graphics/SVG/1.1/DTD/svg11.dtd">
<svg version="1.1" id="Layer_1" xmlns="http://www.w3.org/2000/svg" xmlns:xlink="http://www.w3.org/1999/xlink" x="0px" y="0px"
	 width="411.111px" height="121.212px" viewBox="0 0 411.111 121.212" enable-background="new 0 0 411.111 121.212"
	 xml:space="preserve">
<g>
	<g>
		<text transform="matrix(1 0 0 1 90.3901 61.6152)"><tspan x="0" y="0" fill="#FFFFFF" font-family="'Trench-Thin'" font-size="27.9333">W</tspan><tspan x="23.017" y="0" fill="#FFFFFF" font-family="'Trench-Thin'" font-size="27.9333">e</tspan><tspan x="38.268" y="0" fill="#FFFFFF" font-family="'Trench-Thin'" font-size="27.9333"> </tspan><tspan x="45.027" y="0" fill="#FFFFFF" font-family="'Trench-Thin'" font-size="27.9333">C</tspan><tspan x="60.726" y="0" fill="#FFFFFF" font-family="'Trench-Thin'" font-size="27.9333">a</tspan><tspan x="75.334" y="0" fill="#FFFFFF" font-family="'Trench-Thin'" font-size="27.9333">n</tspan><tspan x="90.725" y="0" fill="#FFFFFF" font-family="'Trench-Thin'" font-size="27.9333"> </tspan><tspan x="97.485" y="0" fill="#FFFFFF" font-family="'Trench-Thin'" font-size="27.9333">D</tspan><tspan x="114.049" y="0" fill="#FFFFFF" font-family="'Trench-Thin'" font-size="27.9333">e</tspan><tspan x="129.3" y="0" fill="#FFFFFF" font-family="'Trench-Thin'" font-size="27.9333">s</tspan><tspan x="143.406" y="0" fill="#FFFFFF" font-family="'Trench-Thin'" font-size="27.9333">i</tspan><tspan x="148.49" y="0" fill="#FFFFFF" font-family="'Trench-Thin'" font-size="27.9333">g</tspan><tspan x="163.601" y="0" fill="#FFFFFF" font-family="'Trench-Thin'" font-size="27.9333">n</tspan><tspan x="178.992" y="0" fill="#FFFFFF" font-family="'Trench-Thin'" font-size="27.9333"> </tspan><tspan x="185.751" y="0" fill="#FFFFFF" font-family="'Trench-Thin'" font-size="27.9333">t</tspan><tspan x="195.611" y="0" fill="#FFFFFF" font-family="'Trench-Thin'" font-size="27.9333">o</tspan><tspan x="210.863" y="0" fill="#FFFFFF" font-family="'Trench-Thin'" font-size="27.9333">o</tspan><tspan x="226.114" y="0" fill="#FFFFFF" font-family="'Trench-Thin'" font-size="27.9333">!</tspan></text>
	</g>
	<text transform="matrix(1 0 0 1 90.4194 76.6367)"><tspan x="0" y="0" font-family="'Trench-Thin'" font-size="15">W</tspan><tspan x="12.06" y="0" font-family="'Trench-Thin'" font-size="15">e</tspan><tspan x="19.95" y="0" font-family="'Trench-Thin'" font-size="15"> </tspan><tspan x="23.279" y="0" font-family="'Trench-Thin'" font-size="15">h</tspan><tspan x="30.629" y="0" font-family="'Trench-Thin'" font-size="15">a</tspan><tspan x="38.174" y="0" font-family="'Trench-Thin'" font-size="15">v</tspan><tspan x="45.824" y="0" font-family="'Trench-Thin'" font-size="15">e</tspan><tspan x="53.714" y="0" font-family="'Trench-Thin'" font-size="15"> </tspan><tspan x="57.043" y="0" font-family="'Trench-Thin'" font-size="15">a</tspan><tspan x="64.588" y="0" font-family="'Trench-Thin'" font-size="15">n</tspan><tspan x="72.553" y="0" font-family="'Trench-Thin'" font-size="15"> </tspan><tspan x="75.883" y="0" font-family="'Trench-Thin'" font-size="15">e</tspan><tspan x="83.773" y="0" font-family="'Trench-Thin'" font-size="15">n</tspan><tspan x="91.738" y="0" font-family="'Trench-Thin'" font-size="15">d</tspan><tspan x="99.778" y="0" font-family="'Trench-Thin'" font-size="15">l</tspan><tspan x="102.177" y="0" font-family="'Trench-Thin'" font-size="15">e</tspan><tspan x="110.067" y="0" font-family="'Trench-Thin'" font-size="15">s</tspan><tspan x="117.342" y="0" font-family="'Trench-Thin'" font-size="15">s</tspan><tspan x="124.617" y="0" font-family="'Trench-Thin'" font-size="15"> </tspan><tspan x="127.947" y="0" font-family="'Trench-Thin'" font-size="15">l</tspan><tspan x="130.346" y="0" font-family="'Trench-Thin'" font-size="15">i</tspan><tspan x="132.777" y="0" font-family="'Trench-Thin'" font-size="15">m</tspan><tspan x="145.152" y="0" font-family="'Trench-Thin'" font-size="15">i</tspan><tspan x="147.582" y="0" font-family="'Trench-Thin'" font-size="15">t</tspan><tspan x="152.576" y="0" font-family="'Trench-Thin'" font-size="15"> </tspan><tspan x="155.906" y="0" font-family="'Trench-Thin'" font-size="15">o</tspan><tspan x="163.795" y="0" font-family="'Trench-Thin'" font-size="15">f</tspan><tspan x="168.67" y="0" font-family="'Trench-Thin'" font-size="15"> </tspan><tspan x="172" y="0" font-family="'Trench-Thin'" font-size="15">c</tspan><tspan x="178.57" y="0" font-family="'Trench-Thin'" font-size="15">r</tspan><tspan x="185.38" y="0" font-family="'Trench-Thin'" font-size="15">e</tspan><tspan x="193.269" y="0" font-family="'Trench-Thin'" font-size="15">a</tspan><tspan x="200.814" y="0" font-family="'Trench-Thin'" font-size="15">t</tspan><tspan x="205.81" y="0" font-family="'Trench-Thin'" font-size="15">i</tspan><tspan x="208.24" y="0" font-family="'Trench-Thin'" font-size="15">v</tspan><tspan x="215.889" y="0" font-family="'Trench-Thin'" font-size="15">i</tspan><tspan x="218.319" y="0" font-family="'Trench-Thin'" font-size="15">t</tspan><tspan x="223.314" y="0" font-family="'Trench-Thin'" font-size="15">y</tspan></text>
	<path opacity="0.5" fill="none" stroke="#FFFFFF" stroke-miterlimit="10" d="M349.158,76.095c0,8.473-6.865,15.339-15.338,15.339
		H77.291c-8.472,0-15.338-6.866-15.338-15.339V45.117c0-8.473,6.866-15.339,15.338-15.339H333.82
		c8.473,0,15.338,6.866,15.338,15.339V76.095z"/>
</g>
</svg>
