<?xml version="1.0" encoding="utf-8"?>
<!-- Generator: Adobe Illustrator 15.0.0, SVG Export Plug-In . SVG Version: 6.00 Build 0)  -->
<!DOCTYPE svg PUBLIC "-//W3C//DTD SVG 1.1//EN" "http://www.w3.org/Graphics/SVG/1.1/DTD/svg11.dtd">
<svg version="1.1" id="Layer_1" xmlns="http://www.w3.org/2000/svg" xmlns:xlink="http://www.w3.org/1999/xlink" x="0px" y="0px"
	 width="411.111px" height="121.212px" viewBox="0 0 411.111 121.212" enable-background="new 0 0 411.111 121.212"
	 xml:space="preserve">
<g>
	<g>
		<text transform="matrix(1 0 0 1 85.7949 61.6152)"><tspan x="0" y="0" fill="#FFFFFF" font-family="'Trench-Thin'" font-size="27.9333">A</tspan><tspan x="18.296" y="0" fill="#FFFFFF" font-family="'Trench-Thin'" font-size="27.9333">f</tspan><tspan x="27.375" y="0" fill="#FFFFFF" font-family="'Trench-Thin'" font-size="27.9333">f</tspan><tspan x="36.453" y="0" fill="#FFFFFF" font-family="'Trench-Thin'" font-size="27.9333">o</tspan><tspan x="51.145" y="0" fill="#FFFFFF" font-family="'Trench-Thin'" font-size="27.9333">r</tspan><tspan x="63.827" y="0" fill="#FFFFFF" font-family="'Trench-Thin'" font-size="27.9333">d</tspan><tspan x="78.799" y="0" fill="#FFFFFF" font-family="'Trench-Thin'" font-size="27.9333">a</tspan><tspan x="92.849" y="0" fill="#FFFFFF" font-family="'Trench-Thin'" font-size="27.9333">b</tspan><tspan x="107.123" y="0" fill="#FFFFFF" font-family="'Trench-Thin'" font-size="27.9333">l</tspan><tspan x="111.591" y="0" fill="#FFFFFF" font-family="'Trench-Thin'" font-size="27.9333">e</tspan><tspan x="126.284" y="0" fill="#FFFFFF" font-family="'Trench-Thin'" font-size="27.9333"> </tspan><tspan x="132.485" y="0" fill="#FFFFFF" font-family="'Trench-Thin'" font-size="27.9333">W</tspan><tspan x="154.942" y="0" fill="#FFFFFF" font-family="'Trench-Thin'" font-size="27.9333">e</tspan><tspan x="169.636" y="0" fill="#FFFFFF" font-family="'Trench-Thin'" font-size="27.9333">b</tspan><tspan x="183.909" y="0" fill="#FFFFFF" font-family="'Trench-Thin'" font-size="27.9333">s</tspan><tspan x="197.456" y="0" fill="#FFFFFF" font-family="'Trench-Thin'" font-size="27.9333">i</tspan><tspan x="201.98" y="0" fill="#FFFFFF" font-family="'Trench-Thin'" font-size="27.9333">t</tspan><tspan x="211.282" y="0" fill="#FFFFFF" font-family="'Trench-Thin'" font-size="27.9333">e</tspan><tspan x="225.975" y="0" fill="#FFFFFF" font-family="'Trench-Thin'" font-size="27.9333">s</tspan></text>
	</g>
	<text transform="matrix(1 0 0 1 86.8521 76.6367)"><tspan x="0" y="0" font-family="'Trench-Thin'" font-size="15.2923">i</tspan><tspan x="2.477" y="0" font-family="'Trench-Thin'" font-size="15.2923">n</tspan><tspan x="10.597" y="0" font-family="'Trench-Thin'" font-size="15.2923">c</tspan><tspan x="17.295" y="0" font-family="'Trench-Thin'" font-size="15.2923">l</tspan><tspan x="19.742" y="0" font-family="'Trench-Thin'" font-size="15.2923">u</tspan><tspan x="26.914" y="0" font-family="'Trench-Thin'" font-size="15.2923">d</tspan><tspan x="35.11" y="0" font-family="'Trench-Thin'" font-size="15.2923">i</tspan><tspan x="37.587" y="0" font-family="'Trench-Thin'" font-size="15.2923">n</tspan><tspan x="45.708" y="0" font-family="'Trench-Thin'" font-size="15.2923">g</tspan><tspan x="53.675" y="0" font-family="'Trench-Thin'" font-size="15.2923"> </tspan><tspan x="57.069" y="0" font-family="'Trench-Thin'" font-size="15.2923">m</tspan><tspan x="69.686" y="0" font-family="'Trench-Thin'" font-size="15.2923">o</tspan><tspan x="77.729" y="0" font-family="'Trench-Thin'" font-size="15.2923">b</tspan><tspan x="85.543" y="0" font-family="'Trench-Thin'" font-size="15.2923">i</tspan><tspan x="88.021" y="0" font-family="'Trench-Thin'" font-size="15.2923">l</tspan><tspan x="90.467" y="0" font-family="'Trench-Thin'" font-size="15.2923">e</tspan><tspan x="98.511" y="0" font-family="'Trench-Thin'" font-size="15.2923"> </tspan><tspan x="101.905" y="0" font-family="'Trench-Thin'" font-size="15.2923">f</tspan><tspan x="106.875" y="0" font-family="'Trench-Thin'" font-size="15.2923">r</tspan><tspan x="113.818" y="0" font-family="'Trench-Thin'" font-size="15.2923">i</tspan><tspan x="116.295" y="0" font-family="'Trench-Thin'" font-size="15.2923">e</tspan><tspan x="124.338" y="0" font-family="'Trench-Thin'" font-size="15.2923">n</tspan><tspan x="132.458" y="0" font-family="'Trench-Thin'" font-size="15.2923">d</tspan><tspan x="140.655" y="0" font-family="'Trench-Thin'" font-size="15.2923">l</tspan><tspan x="143.102" y="0" font-family="'Trench-Thin'" font-size="15.2923">y</tspan><tspan x="150.198" y="0" font-family="'Trench-Thin'" font-size="15.2923"> </tspan><tspan x="153.592" y="0" font-family="'Trench-Thin'" font-size="15.2923">c</tspan><tspan x="160.29" y="0" font-family="'Trench-Thin'" font-size="15.2923">o</tspan><tspan x="168.333" y="0" font-family="'Trench-Thin'" font-size="15.2923">n</tspan><tspan x="176.454" y="0" font-family="'Trench-Thin'" font-size="15.2923">f</tspan><tspan x="181.424" y="0" font-family="'Trench-Thin'" font-size="15.2923">i</tspan><tspan x="183.901" y="0" font-family="'Trench-Thin'" font-size="15.2923">g</tspan><tspan x="191.868" y="0" font-family="'Trench-Thin'" font-size="15.2923">u</tspan><tspan x="199.04" y="0" font-family="'Trench-Thin'" font-size="15.2923">r</tspan><tspan x="205.983" y="0" font-family="'Trench-Thin'" font-size="15.2923">a</tspan><tspan x="213.674" y="0" font-family="'Trench-Thin'" font-size="15.2923">t</tspan><tspan x="218.767" y="0" font-family="'Trench-Thin'" font-size="15.2923">i</tspan><tspan x="221.245" y="0" font-family="'Trench-Thin'" font-size="15.2923">o</tspan><tspan x="229.288" y="0" font-family="'Trench-Thin'" font-size="15.2923">n</tspan></text>
	<path opacity="0.5" fill="none" stroke="#FFFFFF" stroke-miterlimit="10" d="M339.158,76.095c0,8.473-6.866,15.339-15.338,15.339
		H87.291c-8.472,0-15.338-6.866-15.338-15.339V45.117c0-8.473,6.866-15.339,15.338-15.339H323.82
		c8.472,0,15.338,6.866,15.338,15.339V76.095z"/>
</g>
</svg>
