<?xml version="1.0" encoding="utf-8"?>
<!-- Generator: Adobe Illustrator 15.0.0, SVG Export Plug-In . SVG Version: 6.00 Build 0)  -->
<!DOCTYPE svg PUBLIC "-//W3C//DTD SVG 1.1//EN" "http://www.w3.org/Graphics/SVG/1.1/DTD/svg11.dtd">
<svg version="1.1" id="Layer_1" xmlns="http://www.w3.org/2000/svg" xmlns:xlink="http://www.w3.org/1999/xlink" x="0px" y="0px"
	 width="411.111px" height="121.212px" viewBox="0 0 411.111 121.212" enable-background="new 0 0 411.111 121.212"
	 xml:space="preserve">
<g>
	<g>
		<text transform="matrix(1 0 0 1 94.999 61.6152)"><tspan x="0" y="0" fill="#FFFFFF" font-family="'Trench-Thin'" font-size="27.9333">M</tspan><tspan x="22.402" y="0" fill="#FFFFFF" font-family="'Trench-Thin'" font-size="27.9333">o</tspan><tspan x="37.095" y="0" fill="#FFFFFF" font-family="'Trench-Thin'" font-size="27.9333">b</tspan><tspan x="51.368" y="0" fill="#FFFFFF" font-family="'Trench-Thin'" font-size="27.9333">i</tspan><tspan x="55.893" y="0" fill="#FFFFFF" font-family="'Trench-Thin'" font-size="27.9333">l</tspan><tspan x="60.362" y="0" fill="#FFFFFF" font-family="'Trench-Thin'" font-size="27.9333">e</tspan><tspan x="75.054" y="0" fill="#FFFFFF" font-family="'Trench-Thin'" font-size="27.9333"> </tspan><tspan x="81.255" y="0" fill="#FFFFFF" font-family="'Trench-Thin'" font-size="27.9333">A</tspan><tspan x="99.551" y="0" fill="#FFFFFF" font-family="'Trench-Thin'" font-size="27.9333">p</tspan><tspan x="114.244" y="0" fill="#FFFFFF" font-family="'Trench-Thin'" font-size="27.9333">p</tspan><tspan x="128.937" y="0" fill="#FFFFFF" font-family="'Trench-Thin'" font-size="27.9333">l</tspan><tspan x="133.405" y="0" fill="#FFFFFF" font-family="'Trench-Thin'" font-size="27.9333">i</tspan><tspan x="137.93" y="0" fill="#FFFFFF" font-family="'Trench-Thin'" font-size="27.9333">c</tspan><tspan x="150.164" y="0" fill="#FFFFFF" font-family="'Trench-Thin'" font-size="27.9333">a</tspan><tspan x="164.215" y="0" fill="#FFFFFF" font-family="'Trench-Thin'" font-size="27.9333">t</tspan><tspan x="173.517" y="0" fill="#FFFFFF" font-family="'Trench-Thin'" font-size="27.9333">i</tspan><tspan x="178.041" y="0" fill="#FFFFFF" font-family="'Trench-Thin'" font-size="27.9333">o</tspan><tspan x="192.734" y="0" fill="#FFFFFF" font-family="'Trench-Thin'" font-size="27.9333">n</tspan><tspan x="207.566" y="0" fill="#FFFFFF" font-family="'Trench-Thin'" font-size="27.9333">s</tspan></text>
	</g>
	<text transform="matrix(1 0 0 1 95.7656 76.6367)"><tspan x="0" y="0" font-family="'Trench-Thin'" font-size="15">F</tspan><tspan x="8.16" y="0" font-family="'Trench-Thin'" font-size="15">o</tspan><tspan x="17.25" y="0" font-family="'Trench-Thin'" font-size="15">r</tspan><tspan x="25.26" y="0" font-family="'Trench-Thin'" font-size="15"> </tspan><tspan x="29.79" y="0" font-family="'Trench-Thin'" font-size="15">A</tspan><tspan x="40.814" y="0" font-family="'Trench-Thin'" font-size="15">n</tspan><tspan x="49.979" y="0" font-family="'Trench-Thin'" font-size="15">y</tspan><tspan x="58.139" y="0" font-family="'Trench-Thin'" font-size="15"> </tspan><tspan x="62.669" y="0" font-family="'Trench-Thin'" font-size="15">c</tspan><tspan x="70.438" y="0" font-family="'Trench-Thin'" font-size="15">a</tspan><tspan x="79.184" y="0" font-family="'Trench-Thin'" font-size="15">t</tspan><tspan x="85.378" y="0" font-family="'Trench-Thin'" font-size="15">e</tspan><tspan x="94.468" y="0" font-family="'Trench-Thin'" font-size="15">g</tspan><tspan x="103.483" y="0" font-family="'Trench-Thin'" font-size="15">o</tspan><tspan x="112.573" y="0" font-family="'Trench-Thin'" font-size="15">r</tspan><tspan x="120.583" y="0" font-family="'Trench-Thin'" font-size="15">y</tspan><tspan x="128.743" y="0" font-family="'Trench-Thin'" font-size="15">!</tspan><tspan x="132.507" y="0" font-family="'Trench-Thin'" font-size="15"> </tspan><tspan x="137.037" y="0" font-family="'Trench-Thin'" font-size="15">y</tspan><tspan x="145.197" y="0" font-family="'Trench-Thin'" font-size="15">o</tspan><tspan x="154.287" y="0" font-family="'Trench-Thin'" font-size="15">u</tspan><tspan x="162.522" y="0" font-family="'Trench-Thin'" font-size="15"> </tspan><tspan x="167.052" y="0" font-family="'Trench-Thin'" font-size="15">n</tspan><tspan x="176.216" y="0" font-family="'Trench-Thin'" font-size="15">a</tspan><tspan x="184.962" y="0" font-family="'Trench-Thin'" font-size="15">m</tspan><tspan x="198.536" y="0" font-family="'Trench-Thin'" font-size="15">e</tspan><tspan x="207.626" y="0" font-family="'Trench-Thin'" font-size="15"> </tspan><tspan x="212.155" y="0" font-family="'Trench-Thin'" font-size="15">i</tspan><tspan x="215.786" y="0" font-family="'Trench-Thin'" font-size="15">t</tspan></text>
	<path opacity="0.5" fill="none" stroke="#FFFFFF" stroke-miterlimit="10" d="M349.158,76.095c0,8.473-6.866,15.339-15.338,15.339
		H77.291c-8.472,0-15.338-6.866-15.338-15.339V45.117c0-8.473,6.866-15.339,15.338-15.339H333.82
		c8.472,0,15.338,6.866,15.338,15.339V76.095z"/>
</g>
</svg>
