<?xml version="1.0" encoding="utf-8"?>
<!-- Generator: Adobe Illustrator 15.0.0, SVG Export Plug-In . SVG Version: 6.00 Build 0)  -->
<!DOCTYPE svg PUBLIC "-//W3C//DTD SVG 1.1//EN" "http://www.w3.org/Graphics/SVG/1.1/DTD/svg11.dtd">
<svg version="1.1" id="Layer_1" xmlns="http://www.w3.org/2000/svg" xmlns:xlink="http://www.w3.org/1999/xlink" x="0px" y="0px"
	 width="411.111px" height="121.212px" viewBox="0 0 411.111 121.212" enable-background="new 0 0 411.111 121.212"
	 xml:space="preserve">
<g>
	<g>
		<text transform="matrix(1 0 0 1 54.3418 61.6152)"><tspan x="0" y="0" fill="#FFFFFF" font-family="'Trench-Thin'" font-size="27.9333">W</tspan><tspan x="21.899" y="0" fill="#FFFFFF" font-family="'Trench-Thin'" font-size="27.9333">e</tspan><tspan x="36.033" y="0" fill="#FFFFFF" font-family="'Trench-Thin'" font-size="27.9333">b</tspan><tspan x="49.748" y="0" fill="#FFFFFF" font-family="'Trench-Thin'" font-size="27.9333"> </tspan><tspan x="55.39" y="0" fill="#FFFFFF" font-family="'Trench-Thin'" font-size="27.9333">D</tspan><tspan x="70.837" y="0" fill="#FFFFFF" font-family="'Trench-Thin'" font-size="27.9333">e</tspan><tspan x="84.971" y="0" fill="#FFFFFF" font-family="'Trench-Thin'" font-size="27.9333">v</tspan><tspan x="98.658" y="0" fill="#FFFFFF" font-family="'Trench-Thin'" font-size="27.9333">e</tspan><tspan x="112.792" y="0" fill="#FFFFFF" font-family="'Trench-Thin'" font-size="27.9333">l</tspan><tspan x="116.702" y="0" fill="#FFFFFF" font-family="'Trench-Thin'" font-size="27.9333">o</tspan><tspan x="130.836" y="0" fill="#FFFFFF" font-family="'Trench-Thin'" font-size="27.9333">p</tspan><tspan x="144.97" y="0" fill="#FFFFFF" font-family="'Trench-Thin'" font-size="27.9333">m</tspan><tspan x="167.456" y="0" fill="#FFFFFF" font-family="'Trench-Thin'" font-size="27.9333">e</tspan><tspan x="181.59" y="0" fill="#FFFFFF" font-family="'Trench-Thin'" font-size="27.9333">n</tspan><tspan x="195.863" y="0" fill="#FFFFFF" font-family="'Trench-Thin'" font-size="27.9333">t</tspan><tspan x="204.606" y="0" fill="#FFFFFF" font-family="'Trench-Thin'" font-size="27.9333"> </tspan><tspan x="210.249" y="0" fill="#FFFFFF" font-family="'Trench-Thin'" font-size="27.9333">E</tspan><tspan x="224.829" y="0" fill="#FFFFFF" font-family="'Trench-Thin'" font-size="27.9333">x</tspan><tspan x="239.187" y="0" fill="#FFFFFF" font-family="'Trench-Thin'" font-size="27.9333">p</tspan><tspan x="253.321" y="0" fill="#FFFFFF" font-family="'Trench-Thin'" font-size="27.9333">e</tspan><tspan x="267.454" y="0" fill="#FFFFFF" font-family="'Trench-Thin'" font-size="27.9333">r</tspan><tspan x="279.577" y="0" fill="#FFFFFF" font-family="'Trench-Thin'" font-size="27.9333">t</tspan><tspan x="288.32" y="0" fill="#FFFFFF" font-family="'Trench-Thin'" font-size="27.9333">s</tspan></text>
	</g>
	<text transform="matrix(1 0 0 1 56.1982 81.293)"><tspan x="0" y="0" font-family="'Trench-Thin'" font-size="15.2923">P</tspan><tspan x="10.124" y="0" font-family="'Trench-Thin'" font-size="15.2923">r</tspan><tspan x="18.595" y="0" font-family="'Trench-Thin'" font-size="15.2923">o</tspan><tspan x="28.168" y="0" font-family="'Trench-Thin'" font-size="15.2923">v</tspan><tspan x="37.496" y="0" font-family="'Trench-Thin'" font-size="15.2923">i</tspan><tspan x="41.503" y="0" font-family="'Trench-Thin'" font-size="15.2923">d</tspan><tspan x="51.229" y="0" font-family="'Trench-Thin'" font-size="15.2923">i</tspan><tspan x="55.235" y="0" font-family="'Trench-Thin'" font-size="15.2923">n</tspan><tspan x="64.884" y="0" font-family="'Trench-Thin'" font-size="15.2923">g</tspan><tspan x="74.381" y="0" font-family="'Trench-Thin'" font-size="15.2923"> </tspan><tspan x="79.305" y="0" font-family="'Trench-Thin'" font-size="15.2923">c</tspan><tspan x="87.532" y="0" font-family="'Trench-Thin'" font-size="15.2923">o</tspan><tspan x="97.104" y="0" font-family="'Trench-Thin'" font-size="15.2923">n</tspan><tspan x="106.754" y="0" font-family="'Trench-Thin'" font-size="15.2923">s</tspan><tspan x="115.7" y="0" font-family="'Trench-Thin'" font-size="15.2923">u</tspan><tspan x="124.401" y="0" font-family="'Trench-Thin'" font-size="15.2923">l</tspan><tspan x="128.376" y="0" font-family="'Trench-Thin'" font-size="15.2923">t</tspan><tspan x="134.998" y="0" font-family="'Trench-Thin'" font-size="15.2923">i</tspan><tspan x="139.004" y="0" font-family="'Trench-Thin'" font-size="15.2923">n</tspan><tspan x="148.654" y="0" font-family="'Trench-Thin'" font-size="15.2923">g</tspan><tspan x="158.15" y="0" font-family="'Trench-Thin'" font-size="15.2923"> </tspan><tspan x="163.074" y="0" font-family="'Trench-Thin'" font-size="15.2923">a</tspan><tspan x="172.295" y="0" font-family="'Trench-Thin'" font-size="15.2923">n</tspan><tspan x="181.944" y="0" font-family="'Trench-Thin'" font-size="15.2923">d</tspan><tspan x="191.67" y="0" font-family="'Trench-Thin'" font-size="15.2923"> </tspan><tspan x="196.594" y="0" font-family="'Trench-Thin'" font-size="15.2923">w</tspan><tspan x="210.861" y="0" font-family="'Trench-Thin'" font-size="15.2923">e</tspan><tspan x="220.435" y="0" font-family="'Trench-Thin'" font-size="15.2923">b</tspan><tspan x="229.777" y="0" font-family="'Trench-Thin'" font-size="15.2923"> </tspan><tspan x="234.702" y="0" font-family="'Trench-Thin'" font-size="15.2923">s</tspan><tspan x="243.647" y="0" font-family="'Trench-Thin'" font-size="15.2923">e</tspan><tspan x="253.221" y="0" font-family="'Trench-Thin'" font-size="15.2923">r</tspan><tspan x="261.692" y="0" font-family="'Trench-Thin'" font-size="15.2923">v</tspan><tspan x="271.021" y="0" font-family="'Trench-Thin'" font-size="15.2923">i</tspan><tspan x="275.027" y="0" font-family="'Trench-Thin'" font-size="15.2923">c</tspan><tspan x="283.254" y="0" font-family="'Trench-Thin'" font-size="15.2923">e</tspan><tspan x="292.826" y="0" font-family="'Trench-Thin'" font-size="15.2923">s</tspan></text>
	<path opacity="0.5" fill="none" stroke="#FFFFFF" stroke-miterlimit="10" d="M371.32,76.095c0,8.473-6.867,15.339-15.338,15.339
		H55.13c-8.473,0-15.34-6.866-15.34-15.339V45.117c0-8.473,6.867-15.339,15.34-15.339h300.853c8.471,0,15.338,6.866,15.338,15.339
		V76.095z"/>
</g>
</svg>
